<?xml version="1.0" encoding="UTF-8"?>
<!DOCTYPE svg PUBLIC "-//W3C//DTD SVG 1.1//EN" "http://www.w3.org/Graphics/SVG/1.1/DTD/svg11.dtd">
<!-- Creator: CorelDRAW X7 -->
<svg xmlns="http://www.w3.org/2000/svg" xml:space="preserve" width="210mm" height="180mm" version="1.1" style="shape-rendering:geometricPrecision; text-rendering:geometricPrecision; image-rendering:optimizeQuality; fill-rule:evenodd; clip-rule:evenodd"
viewBox="0 0 21000 18000"
 xmlns:xlink="http://www.w3.org/1999/xlink">
 <defs>
  <style type="text/css">
   <![CDATA[
    .fil0 {fill:#332C2B}
    .fil1 {fill:white}
   ]]>
  </style>
 </defs>
 <g id="Layer_x0020_1">
  <metadata id="CorelCorpID_0Corel-Layer"/>
  <circle class="fil0" transform="matrix(0.543574 -0.319049 0.253865 0.432518 15159.9 4665.26)" r="1614"/>
  <path class="fil0" d="M12726 4402c1991,-224 3429,290 3814,2208l-870 4148c-3256,7315 -14608,580 -7962,-4349l5018 -2007z"/>
  <ellipse class="fil1" cx="10819" cy="9631" rx="3847" ry="3061"/>
  <path class="fil0" d="M8568 8337c-47,27 -85,53 -118,90 -101,111 -119,235 -55,391 84,203 250,308 449,250 61,-19 591,-244 663,-274 61,-25 620,-254 663,-278 69,-38 116,-80 158,-141 70,-102 61,-228 14,-340 -84,-205 -250,-308 -449,-249 -59,17 -593,244 -664,273 -61,26 -618,253 -661,278z"/>
  <path class="fil0" d="M11989 11212c1,53 7,99 23,145 50,142 149,217 318,235 218,23 390,-72 433,-275 13,-62 68,-635 76,-714 7,-65 72,-665 72,-715 -1,-78 -15,-140 -49,-205 -56,-111 -171,-163 -292,-176 -220,-23 -390,73 -433,277 -13,60 -69,637 -76,714 -7,66 -73,663 -72,714z"/>
  <path class="fil0" d="M821 9428c38,-81 -46,-325 -71,-443 -32,-154 -61,-297 -77,-455 -37,-379 -45,-549 -31,-939 12,-326 92,-692 159,-1009 139,-658 570,-1556 977,-2091l322 -404c223,-255 445,-462 708,-670 305,-242 619,-435 967,-603 110,-53 265,-115 205,-279 -89,-244 -402,-35 -540,38l-206 113c-349,212 -469,297 -791,550 -69,55 -129,117 -196,178 -1019,925 -1635,2178 -1896,3527l-57 424c-6,51 -8,81 -11,134 -31,582 2,1259 166,1816 22,77 42,169 135,206 82,33 198,-8 237,-93z"/>
  <path class="fil0" d="M2262 8839c91,43 193,-3 245,-115 25,-53 -53,-472 -62,-563 -63,-608 83,-1363 345,-1924 121,-258 372,-646 569,-873 303,-348 531,-538 917,-775 117,-71 197,-70 255,-195 28,-60 25,-398 -382,-156 -1221,725 -1942,1873 -2073,3327 -32,358 -6,640 50,985 16,95 25,237 136,289z"/>
  <path class="fil0" d="M4014 7995c93,43 208,5 254,-92 25,-54 -1,-254 6,-406 17,-317 191,-725 433,-931 110,-93 284,-211 316,-279 46,-99 -51,-387 -348,-169 -427,312 -720,777 -765,1328 -10,132 -33,485 104,549z"/>
  <g id="_2954529319904">
   <path class="fil0" d="M20028 10105c-38,81 47,325 71,443 32,153 62,297 77,454 37,380 45,550 31,940 -11,325 -92,692 -159,1009 -139,657 -570,1555 -977,2090l-322 405c-223,254 -445,462 -708,670 -305,242 -619,434 -967,602 -110,53 -264,116 -205,280 89,244 403,35 540,-39l207 -113c348,-211 468,-296 790,-550 69,-54 129,-116 196,-177 1019,-925 1635,-2179 1896,-3527l57 -425c6,-50 8,-80 11,-134 31,-581 -2,-1258 -165,-1816 -23,-76 -43,-168 -136,-206 -82,-33 -198,9 -237,94z"/>
   <path class="fil0" d="M18587 10693c-91,-42 -193,4 -245,115 -25,53 53,472 63,564 62,608 -84,1363 -346,1923 -121,259 -371,647 -569,874 -303,348 -531,538 -917,775 -116,71 -196,70 -255,195 -28,59 -25,397 382,156 1221,-725 1942,-1873 2073,-3327 32,-359 6,-640 -50,-985 -15,-95 -25,-238 -136,-290z"/>
   <path class="fil0" d="M16835 11538c-93,-43 -208,-6 -254,92 -25,54 1,253 -6,406 -16,317 -191,724 -433,931 -109,92 -284,211 -316,279 -46,98 51,386 348,169 427,-312 720,-778 765,-1329 11,-131 33,-484 -104,-548z"/>
  </g>
  <circle class="fil1" transform="matrix(0.543574 -0.319049 0.253865 0.432518 14970.3 4968.72)" r="1614"/>
  <path class="fil0" d="M13578 4145c-86,139 -47,330 101,420 82,51 405,45 647,85 502,83 1120,436 1405,859 129,192 285,491 389,554 148,92 625,-11 332,-524 -420,-737 -1109,-1290 -1980,-1461 -208,-41 -766,-141 -894,67z"/>
 </g>
</svg>
